<?xml version="1.0" encoding="iso-8859-1"?>
<!-- Uploaded to: SVG Repo, www.svgrepo.com, Generator: SVG Repo Mixer Tools -->
<svg height="800px" width="800px" version="1.1" id="Capa_1" xmlns="http://www.w3.org/2000/svg" xmlns:xlink="http://www.w3.org/1999/xlink" 
	 viewBox="0 0 17.939 17.939" xml:space="preserve">
<g>
	<path style="fill:#030104;" d="M15.317,7.04l-0.034-0.055c0.002-0.112,0.003-0.227-0.001-0.342l0.005-0.081L15.14,5.727
		c0-1.465-0.959-5.542-3.398-5.196c0,0-2.505-1.368-5.578,0.286c-2.978,1.21-3.398,3.446-3.398,4.911v1.104
		C2.76,6.853,2.753,6.87,2.748,6.886C2.651,7.162,2.644,7.183,3.037,9.258C2.935,9.289,2.846,9.351,2.779,9.44
		c-0.336,0.443-0.043,1.614,0.047,1.929c0.084,0.55,0.297,0.866,0.492,1.046c0.431,3.094,3.09,5.524,5.428,5.524
		c2.733,0,5.319-2.679,5.774-5.521c0.195-0.177,0.408-0.488,0.488-1.015c0.098-0.349,0.39-1.522,0.054-1.966
		c-0.04-0.054-0.089-0.097-0.143-0.13c0.146-0.504,0.338-1.33,0.364-2.246C15.293,7.052,15.305,7.047,15.317,7.04z M12.405,8.236
		c0,0.158-0.127,0.286-0.284,0.286H5.816c-0.157,0-0.285-0.128-0.285-0.286V6.434c0-0.157,0.127-0.285,0.285-0.285h6.304
		c0.157,0,0.284,0.128,0.284,0.285L12.405,8.236L12.405,8.236z"/>
</g>
</svg>